<svg id="visual" viewBox="0 0 1920 880" width="1920" height="880" xmlns="http://www.w3.org/2000/svg" xmlns:xlink="http://www.w3.org/1999/xlink" version="1.1"><rect x="0" y="0" width="1920" height="880" fill="#000001"></rect><path d="M0 520L53.3 539C106.7 558 213.3 596 320 612.2C426.7 628.3 533.3 622.7 640 612.2C746.7 601.7 853.3 586.3 960 584C1066.7 581.7 1173.3 592.3 1280 584.7C1386.7 577 1493.3 551 1600 547.3C1706.7 543.7 1813.3 562.3 1866.7 571.7L1920 581L1920 881L1866.7 881C1813.3 881 1706.7 881 1600 881C1493.3 881 1386.7 881 1280 881C1173.3 881 1066.7 881 960 881C853.3 881 746.7 881 640 881C533.3 881 426.7 881 320 881C213.3 881 106.7 881 53.3 881L0 881Z" fill="#8789c7"></path><path d="M0 647L53.3 660.5C106.7 674 213.3 701 320 711.3C426.7 721.7 533.3 715.3 640 696.2C746.7 677 853.3 645 960 636.7C1066.7 628.3 1173.3 643.7 1280 659.5C1386.7 675.3 1493.3 691.7 1600 690.5C1706.7 689.3 1813.3 670.7 1866.7 661.3L1920 652L1920 881L1866.7 881C1813.3 881 1706.7 881 1600 881C1493.3 881 1386.7 881 1280 881C1173.3 881 1066.7 881 960 881C853.3 881 746.7 881 640 881C533.3 881 426.7 881 320 881C213.3 881 106.7 881 53.3 881L0 881Z" fill="#6e67e8"></path><path d="M0 753L53.3 754.8C106.7 756.7 213.3 760.3 320 757.2C426.7 754 533.3 744 640 737.2C746.7 730.3 853.3 726.7 960 740.3C1066.7 754 1173.3 785 1280 801.3C1386.7 817.7 1493.3 819.3 1600 818C1706.7 816.7 1813.3 812.3 1866.7 810.2L1920 808L1920 881L1866.7 881C1813.3 881 1706.7 881 1600 881C1493.3 881 1386.7 881 1280 881C1173.3 881 1066.7 881 960 881C853.3 881 746.7 881 640 881C533.3 881 426.7 881 320 881C213.3 881 106.7 881 53.3 881L0 881Z" fill="#6534ff"></path></svg>